<?xml version="1.0" encoding="UTF-8"?>
<!-- Generator: Adobe Illustrator 21.0.0, SVG Export Plug-In . SVG Version: 6.00 Build 0)  -->
<svg version="1.1" id="Calque_1" xmlns="http://www.w3.org/2000/svg" xmlns:xlink="http://www.w3.org/1999/xlink" x="0px" y="0px" viewBox="0 0 178.2 54" style="enable-background:new 0 0 178.2 54;" xml:space="preserve">
<style type="text/css">
	.st0{fill:#FFAD00;}
	.st1{fill:#FFAD00;}
</style>
<title>Brand/Logos/Services/Store/Alt</title>
<desc>Created with Sketch.</desc>
<g id="Symbols">
	<g id="Brand_x2F_Logos_x2F_Services_x2F_Store_x2F_Alt">
		<path id="Combined-Shape" class="st0" d="M110.5,51.3c-6.7,0-12.1-5.4-12.1-12.1S103.8,27,110.5,27c6.7,0,12.1,5.4,12.1,12.1    S117.2,51.3,110.5,51.3 M110.5,24.3c-8.2,0-14.8,6.7-14.8,14.8S102.3,54,110.5,54s14.8-6.7,14.8-14.8S118.7,24.3,110.5,24.3z     M163.4,9.5c-4.1,0-7.9,1.6-10.7,4.6c-2.8,3-4.3,6.9-4.1,11c0.4,7.6,6.6,13.8,14.3,14.1c0.2,0,0.4,0,0.6,0c4.7,0,9.1-2.2,11.9-6    c0.4-0.6,0.3-1.4-0.3-1.9c-0.6-0.4-1.4-0.3-1.9,0.3c-2.4,3.2-6.2,5.1-10.2,4.9c-6.2-0.2-11.4-5.3-11.7-11.6c-0.2-3.4,1-6.5,3.3-9    c2.3-2.4,5.4-3.8,8.8-3.8c6.2,0,11.4,4.7,12.1,10.8h-12.1c-0.7,0-1.4,0.6-1.4,1.3c0,0.7,0.6,1.4,1.4,1.4h12.9    c0.5,0,1.1-0.2,1.4-0.6c0.4-0.4,0.6-0.9,0.5-1.4C177.8,15.7,171.3,9.5,163.4,9.5z M137.8,27.3c4.3-0.7,7.5-4.4,7.5-8.9    c0-4.9-4-8.9-8.9-9c0,0,0,0-0.1,0l-5.5,0h0c-0.6,0-1.2,0.2-1.6,0.7c-0.4,0.4-0.6,1-0.6,1.6v26.1c0,0.7,0.6,1.4,1.4,1.4    c0.7,0,1.3-0.6,1.3-1.4V12.2l5,0c3.5,0,6.3,2.8,6.3,6.3s-2.8,6.3-6.3,6.3h0l-1.8,0c0,0,0,0,0,0c0,0-0.1,0-0.1,0c0,0,0,0-0.1,0    c0,0,0,0-0.1,0c0,0,0,0-0.1,0c0,0,0,0-0.1,0c0,0,0,0-0.1,0c0,0,0,0-0.1,0s0,0-0.1,0c0,0,0,0-0.1,0c0,0,0,0-0.1,0c0,0,0,0-0.1,0    c0,0,0,0,0,0c0,0,0,0-0.1,0c0,0,0,0,0,0c0,0,0,0-0.1,0c0,0,0,0-0.1,0.1c0,0,0,0,0,0c0,0,0,0,0,0c0,0,0,0-0.1,0.1c0,0,0,0,0,0    c0,0,0,0,0,0.1c0,0,0,0,0,0c0,0,0,0,0,0.1c0,0,0,0,0,0.1c0,0,0,0,0,0.1c0,0,0,0,0,0.1c0,0,0,0,0,0.1c0,0,0,0,0,0.1c0,0,0,0,0,0.1    c0,0,0,0.1,0,0.1c0,0,0,0,0,0.1c0,0,0,0.1,0,0.1c0,0,0,0,0,0c0,0,0,0,0,0c0,0,0,0.1,0,0.1c0,0,0,0,0,0.1c0,0,0,0,0,0.1    c0,0,0,0,0,0.1c0,0,0,0,0,0.1c0,0,0,0,0,0.1c0,0,0,0,0,0.1c0,0,0,0,0,0.1c0,0,0,0,0,0.1c0,0,0,0,0,0.1c0,0,0,0,0,0.1    c0,0,0,0,0,0.1c0,0,0,0,0,0.1c0,0,0,0,0,0c0,0,0,0,0,0c0,0,0,0,0.1,0.1c0,0,0,0,0,0c3.3,2.9,7.8,8.1,10.2,11.5    c0.3,0.4,0.7,0.6,1.1,0.6c0.3,0,0.5-0.1,0.8-0.2c0.6-0.4,0.8-1.3,0.3-1.9C144.1,34.3,140.9,30.4,137.8,27.3z M63.5,22.1    c-0.3-0.1-0.6-0.2-0.8-0.2l-0.2-0.1c-2.5-0.8-5.1-1.9-5.1-4.8v0c0-1.5,0.3-2.3,1.1-3.1c1.1-1.1,2.8-1.7,4.7-1.7    c3,0,4.7,1.1,5.3,3.5c0.2,0.7,0.9,1.1,1.7,0.9c0.7-0.2,1.1-0.9,0.9-1.7c-1-3.5-3.8-5.5-7.9-5.5c-2.6,0-5,0.9-6.6,2.6    c-1.3,1.4-1.9,2.9-1.9,5.1c0,5.2,5.3,6.8,7,7.3l0.2,0.1c0.3,0.1,0.6,0.2,0.9,0.3c3.3,0.8,6.6,2,6.6,6c0,3.4-2.6,5.7-6.4,5.7    c-3.3,0-5.8-1.8-6.4-4.8c-0.1-0.7-0.9-1.2-1.6-1.1c-0.7,0.1-1.2,0.9-1.1,1.6c0.8,4.2,4.4,7,9,7c2.5,0,4.8-0.8,6.5-2.3    c1.7-1.5,2.6-3.7,2.6-6.1C72.1,24.3,66.1,22.7,63.5,22.1z M94.7,14H82.4v-3.1c0-0.7-0.6-1.3-1.3-1.3c-0.7,0-1.3,0.6-1.3,1.3V14    h-4.5c-0.7,0-1.3,0.6-1.3,1.4c0,0.7,0.6,1.4,1.3,1.4h4.5v4.9c0,0,0,0,0,0l0.1,2.9c0,1.5,0.3,3,0.8,4.6c1.4,4.5,4.7,8.1,9.2,10    c0.2,0.1,0.4,0.1,0.5,0.1c0.5,0,1-0.3,1.2-0.8c0.3-0.7,0-1.5-0.7-1.8c-3.7-1.6-6.5-4.6-7.6-8.3c-0.4-1.3-0.6-2.6-0.6-3.8    c0,0,0,0,0,0l-0.1-2.9v-4.9h12.3c0.7,0,1.3-0.6,1.3-1.4C96,14.6,95.4,14,94.7,14z"/>
		<path id="Fill-13" class="st1" d="M37.9,54H2.5c-0.7,0-1.3-0.3-1.8-0.8C0.2,52.7,0,52.1,0,51.4l2.5-38.4c0.1-1.4,1.3-2.4,2.6-2.3    c1.4,0.1,2.4,1.3,2.3,2.6L5.1,49.1h30.2l-2.1-33.5h-4.8c-1.4,0-2.5-1.1-2.5-2.5l0-2.3c0-3.2-2.5-5.8-5.6-5.9c-1.6,0-3,0.5-4.2,1.6    c-1.1,1.1-1.7,2.5-1.7,4.1h5.7c1.4,0,2.5,1.1,2.5,2.5c0,1.4-1.1,2.5-2.5,2.5H12c-1.4,0-2.5-1.1-2.5-2.5v-2.5    c0-2.9,1.1-5.6,3.2-7.6c2.1-2,4.8-3.1,7.7-3c5.6,0.2,10.2,4.9,10.3,10.6h3.1c2.2,0,3.9,1.7,4.1,3.8l2.4,36.9    c0,0.7-0.2,1.3-0.7,1.8C39.2,53.7,38.6,54,37.9,54"/>
	</g>
</g>
</svg>