<?xml version="1.0" encoding="UTF-8"?>
<!-- Generator: Adobe Illustrator 21.0.0, SVG Export Plug-In . SVG Version: 6.00 Build 0)  -->
<svg version="1.1" id="Calque_1" xmlns="http://www.w3.org/2000/svg" xmlns:xlink="http://www.w3.org/1999/xlink" x="0px" y="0px" viewBox="0 0 231 54" style="enable-background:new 0 0 231 54;" xml:space="preserve">
<style type="text/css">
	.st0{fill:#FFAD00;}
	.st1{fill:#FFAD00;}
</style>
<title>Brand/Logos/Services/Friends/Alt</title>
<desc>Created with Sketch.</desc>
<g id="Symbols">
	<g id="Brand_x2F_Logos_x2F_Services_x2F_Friends_x2F_Alt">
		<path id="Combined-Shape" class="st0" d="M172.2,9.4c-6.5,0-11.9,5.3-11.9,11.8v16.5c0,0.7,0.6,1.3,1.4,1.3c0.7,0,1.3-0.6,1.3-1.3    V21.2c0-5,4.1-9.1,9.2-9.1c5,0,9.1,4.1,9.1,9.1v16.5c0,0.7,0.6,1.3,1.4,1.3c0.7,0,1.3-0.6,1.3-1.3V21.2    C184,14.7,178.7,9.4,172.2,9.4z M195.4,9.4l-4.8,0h0c-0.6,0-1.2,0.2-1.6,0.7c-0.4,0.4-0.7,1-0.7,1.6v19.8c0,0.7,0.6,1.4,1.4,1.4    c0.7,0,1.3-0.6,1.3-1.4V12.1l4.4,0c6.7,0,12.1,5.4,12.1,12.1c0,3.2-1.3,6.3-3.5,8.6c-2.3,2.3-5.3,3.6-8.6,3.6c-0.1,0-0.2,0-0.3,0    l-5.4,0c-0.7,0-1.4,0.6-1.4,1.4c0,0.7,0.6,1.3,1.4,1.3l5.7,0c0.1,0,0.2,0,0.3,0c3.9-0.1,7.5-1.6,10.2-4.3    c2.8-2.8,4.3-6.5,4.3-10.5C210.3,16,203.6,9.4,195.4,9.4z M141.1,24.2c-4.1,0-7.9,1.6-10.7,4.6c-2.8,3-4.3,6.9-4.1,11    c0.4,7.6,6.6,13.8,14.3,14.1c0.2,0,0.4,0,0.6,0c4.7,0,9.1-2.2,11.9-6c0.4-0.6,0.3-1.4-0.3-1.9c-0.6-0.4-1.4-0.3-1.9,0.3    c-2.4,3.2-6.2,5.1-10.2,4.9c-6.2-0.2-11.4-5.3-11.7-11.6c-0.2-3.4,1-6.5,3.3-9c2.3-2.4,5.4-3.8,8.8-3.8c6.2,0,11.4,4.7,12.1,10.8    h-12.1c-0.7,0-1.4,0.6-1.4,1.4c0,0.7,0.6,1.3,1.4,1.3H154c0.5,0,1.1-0.2,1.4-0.6c0.4-0.4,0.6-0.9,0.5-1.4    C155.6,30.4,149.1,24.2,141.1,24.2z M89.6,19.9h-7.3c0-0.1,0-0.2,0-0.2c0.5-3.2,2.5-5.8,6.1-7.7c0.7-0.3,0.9-1.2,0.6-1.8    c-0.3-0.7-1.2-0.9-1.8-0.6c-4.4,2.3-7,5.7-7.5,9.7c0,0.2-0.1,0.4-0.1,0.6h-5.1c-0.7,0-1.3,0.6-1.3,1.4s0.6,1.4,1.3,1.4h5    c0,0.6,0,1.1,0,1.5v13.6c0,0.7,0.6,1.3,1.3,1.3s1.3-0.6,1.3-1.3V24.1c0-0.5,0-1,0-1.5h7.5c0.7,0,1.3-0.6,1.3-1.4    S90.3,19.9,89.6,19.9z M104.3,27.2c4.3-0.7,7.5-4.4,7.5-8.9c0-4.9-4-8.9-8.9-9c0,0,0,0-0.1,0l-5.5,0h0c-0.6,0-1.2,0.2-1.6,0.7    c-0.4,0.4-0.6,1-0.6,1.6v26.1c0,0.7,0.6,1.3,1.3,1.3c0.7,0,1.3-0.6,1.3-1.3V12.1l5,0h0c3.5,0,6.3,2.8,6.3,6.3s-2.8,6.3-6.3,6.3    c0,0,0,0,0,0l-1.8,0h0c0,0,0,0,0,0c0,0-0.1,0-0.1,0c0,0,0,0-0.1,0c0,0,0,0-0.1,0c0,0,0,0-0.1,0c0,0,0,0-0.1,0c0,0,0,0-0.1,0    c0,0,0,0-0.1,0c0,0,0,0-0.1,0c0,0,0,0-0.1,0c0,0,0,0-0.1,0c0,0,0,0-0.1,0c0,0,0,0,0,0c0,0,0,0-0.1,0c0,0,0,0,0,0c0,0,0,0,0,0    c0,0,0,0-0.1,0.1c0,0,0,0,0,0c0,0,0,0,0,0c0,0,0,0-0.1,0.1c0,0,0,0,0,0c0,0,0,0,0,0.1c0,0,0,0,0,0c0,0,0,0,0,0.1c0,0,0,0,0,0.1    c0,0,0,0,0,0.1c0,0,0,0,0,0.1c0,0,0,0,0,0.1c0,0,0,0,0,0.1c0,0,0,0,0,0.1c0,0,0,0.1,0,0.1c0,0,0,0,0,0.1c0,0,0,0.1,0,0.1v0    c0,0,0,0,0,0c0,0,0,0,0,0.1c0,0,0,0,0,0.1c0,0,0,0,0,0.1c0,0,0,0,0,0.1c0,0,0,0,0,0.1c0,0,0,0,0,0.1c0,0,0,0,0,0.1c0,0,0,0,0,0.1    s0,0,0,0.1c0,0,0,0,0,0.1c0,0,0,0,0,0.1c0,0,0,0,0,0.1c0,0,0,0,0,0.1c0,0,0,0,0,0s0,0,0,0c0,0,0,0,0.1,0.1c0,0,0,0,0,0    c3.3,2.9,7.8,8.1,10.2,11.5c0.3,0.4,0.7,0.6,1.1,0.6c0.3,0,0.5-0.1,0.8-0.2c0.6-0.4,0.8-1.3,0.3-1.9    C110.6,34.2,107.4,30.3,104.3,27.2z M221.9,22c-0.3-0.1-0.6-0.2-0.8-0.2l-0.2-0.1c-2.5-0.8-5.1-1.9-5.1-4.8v0    c0-1.5,0.3-2.3,1.1-3.1c1.1-1.1,2.8-1.7,4.7-1.7c3,0,4.7,1.1,5.3,3.5c0.2,0.7,0.9,1.1,1.7,0.9c0.7-0.2,1.1-0.9,0.9-1.7    c-1-3.5-3.8-5.5-7.9-5.5c-2.6,0-5,0.9-6.6,2.6c-1.3,1.4-1.9,2.9-1.9,5.1c0,5.2,5.3,6.8,7,7.3l0.2,0.1c0.3,0.1,0.6,0.2,0.9,0.3    c3.3,0.8,6.6,2,6.6,6c0,3.4-2.6,5.7-6.4,5.7c-3.3,0-5.8-1.8-6.4-4.8c-0.1-0.7-0.9-1.2-1.6-1.1c-0.7,0.1-1.2,0.9-1.1,1.6    c0.8,4.2,4.4,7,9,7c2.5,0,4.8-0.8,6.5-2.3c1.7-1.5,2.6-3.7,2.6-6.1C230.5,24.2,224.4,22.6,221.9,22z M120.4,9.4    c-0.7,0-1.3,0.6-1.3,1.3v27c0,0.7,0.6,1.3,1.3,1.3s1.3-0.6,1.3-1.3v-27C121.7,10,121.1,9.4,120.4,9.4z"/>
		<path id="Fill-15" class="st1" d="M29.6,49c0.1,0.1,0.3,0.1,0.4,0l21-21.9c2.4-2.5,3.7-5.7,3.7-9.1c0-3.5-1.4-6.8-3.8-9.2    c-2.5-2.5-5.8-3.8-9.2-3.8c-3.4,0-7.6,1.7-9.5,6.6c-0.4,0.9-1.2,1.5-2.2,1.6c-1,0-1.9-0.5-2.3-1.4c-1.2-2.5-4-6.8-9.6-6.8    C10.8,4.9,4.9,10.8,4.9,18c0,3.4,1.3,6.7,3.7,9.1L29.6,49z M31.7,50.8L31.7,50.8L31.7,50.8z M29.8,54c-1.3,0-2.6-0.5-3.6-1.5    c0,0,0,0,0,0l-21-21.9C1.8,27.2,0,22.7,0,18C0,8.1,8.1,0,18,0c4.7,0,8.8,2.1,11.7,5.8C32.9,1.6,37.6,0,41.6,0    c4.8,0,9.3,1.9,12.7,5.3c3.4,3.4,5.3,7.9,5.3,12.7c0,4.7-1.8,9.2-5.1,12.6l-21,21.9c0,0,0,0,0,0C32.4,53.5,31.1,54,29.8,54    L29.8,54z"/>
	</g>
</g>
</svg>