<?xml version="1.0" encoding="UTF-8" standalone="no"?>
<svg width="32px" height="32px" viewBox="0 0 32 32" version="1.1" xmlns="http://www.w3.org/2000/svg" xmlns:xlink="http://www.w3.org/1999/xlink">
    <!-- Generator: Sketch 41.2 (35397) - http://www.bohemiancoding.com/sketch -->
    <title>icons/social/youtube</title>
    <desc>Created with Sketch.</desc>
    <defs></defs>
    <g id="Symbols" stroke="none" stroke-width="1" fill="none" fill-rule="evenodd">
        <g id="icons/social/youtube" fill="#FFFFFF">
            <path d="M13.9304029,18.6978022 L13.9304029,13.0384615 L19.3333333,15.8772894 L13.9304029,18.6978022 Z M25.8351648,12.0586081 C25.7396455,11.3372889 25.4658226,10.651158 25.0384615,10.0622711 C24.5018871,9.51139808 23.7653448,9.20092734 22.996337,9.2014652 C20.2032967,9 16,9 16,9 L16,9 C16,9 11.7967033,9 8.99450549,9.2014652 C8.23954907,9.20830258 7.51819948,9.51462911 6.98901099,10.0531136 C6.56350252,10.6455537 6.29278671,11.3349347 6.2014652,12.0586081 C6.07646599,13.1409505 6.00921562,14.2291837 6,15.3186813 L6,16.8388278 C6.00919828,17.9283261 6.0764487,19.0165602 6.2014652,20.0989011 C6.29698457,20.8202203 6.57080743,21.5063511 6.9981685,22.0952381 C7.60584925,22.6390815 8.3897047,22.9448176 9.20512821,22.956044 C10.8076923,23.1117216 16,23.1575092 16,23.1575092 C16,23.1575092 20.2032967,23.1575092 22.996337,22.9468864 C23.7512934,22.9400491 24.472643,22.6337225 25.0018315,22.0952381 C25.4291926,21.5063511 25.7030154,20.8202203 25.7985348,20.0989011 C25.9235513,19.0165602 25.9908017,17.9283261 26,16.8388278 L26,15.3186813 C25.9907844,14.2291837 25.923534,13.1409505 25.7985348,12.0586081 L25.8351648,12.0586081 Z" id="ico---social---Youtube"></path>
        </g>
    </g>
</svg>