<?xml version="1.0" encoding="UTF-8" standalone="no"?>
<svg width="32px" height="32px" viewBox="0 0 32 32" version="1.1" xmlns="http://www.w3.org/2000/svg" xmlns:xlink="http://www.w3.org/1999/xlink">
    <!-- Generator: Sketch 41.2 (35397) - http://www.bohemiancoding.com/sketch -->
    <title>icons/social/twitter</title>
    <desc>Created with Sketch.</desc>
    <defs></defs>
    <g id="Symbols" stroke="none" stroke-width="1" fill="none" fill-rule="evenodd">
        <g id="icons/social/twitter" fill="#FFFFFF">
            <path d="M26,9.97554092 C25.2542973,10.3138969 24.4611467,10.535979 23.6481656,10.6340546 C24.5110461,10.1030113 25.1526146,9.27766022 25.4543744,8.31044214 C24.6485376,8.79900681 23.7634537,9.14285238 22.8391345,9.32643462 C22.0732896,8.48267742 20.9870938,8.00106227 19.8476011,8 C17.554806,8.03097766 15.7198537,9.91222471 15.7460019,12.20508 C15.7456931,12.5215148 15.7803978,12.8370122 15.8494826,13.1458137 C12.5246891,12.9669746 9.43873666,11.3622793 7.38287865,8.74317968 C7.0161148,9.39794102 6.82794956,10.1376251 6.83725306,10.8880527 C6.83132519,12.2841339 7.51410021,13.5933726 8.66227658,14.3875823 C8.00137987,14.3691175 7.35519953,14.188187 6.78080903,13.8607714 L6.78080903,13.9172154 C6.76185401,15.8998426 8.13634777,17.6238505 10.0733772,18.0470367 C9.72157178,18.1475346 9.35741109,18.1982004 8.9915334,18.1975541 C8.7325661,18.197569 8.47421283,18.1723638 8.2201317,18.1222954 C8.73703466,19.8162086 10.2785498,20.9903356 12.0489182,21.0385701 C10.6027472,22.2057933 8.79917322,22.8401996 6.94073377,22.8353716 C6.62633394,22.8345793 6.312239,22.8157336 6,22.7789276 C7.86855263,24.0083681 10.0567684,24.6625432 12.2935089,24.6603951 C19.8193791,24.6603951 23.9680151,18.2539981 23.9680151,12.6848542 L23.9680151,12.1392286 C24.7674706,11.5432828 25.4553681,10.8107994 26,9.97554092" id="ico---social---Twitter"></path>
        </g>
    </g>
</svg>