<?xml version="1.0" encoding="UTF-8" standalone="no"?>
<!-- Generator: Adobe Illustrator 23.0.1, SVG Export Plug-In . SVG Version: 6.00 Build 0)  -->
<svg xmlns:dc="http://purl.org/dc/elements/1.1/" xmlns:cc="http://creativecommons.org/ns#" xmlns:rdf="http://www.w3.org/1999/02/22-rdf-syntax-ns#" xmlns:svg="http://www.w3.org/2000/svg" xmlns="http://www.w3.org/2000/svg" xmlns:sodipodi="http://sodipodi.sourceforge.net/DTD/sodipodi-0.dtd" xmlns:inkscape="http://www.inkscape.org/namespaces/inkscape" version="1.1" id="Calque_1" x="0px" y="0px" viewBox="0 0 841.89 595.28" enable-background="new 0 0 841.89 595.28" xml:space="preserve" sodipodi:docname="News_06.svg" inkscape:version="0.92.3 (2405546, 2018-03-11)"><metadata id="metadata3753"><rdf:RDF><cc:Work rdf:about=""><dc:format>image/svg+xml</dc:format><dc:type rdf:resource="http://purl.org/dc/dcmitype/StillImage"/><dc:title/></cc:Work></rdf:RDF></metadata><defs id="defs3751"/><sodipodi:namedview pagecolor="#ffffff" bordercolor="#666666" borderopacity="1" objecttolerance="10" gridtolerance="10" guidetolerance="10" inkscape:pageopacity="0" inkscape:pageshadow="2" inkscape:window-width="1800" inkscape:window-height="1096" id="namedview3749" showgrid="false" inkscape:zoom="1.5169331" inkscape:cx="420.94501" inkscape:cy="297.64001" inkscape:window-x="2391" inkscape:window-y="-9" inkscape:window-maximized="1" inkscape:current-layer="Calque_1"/>
<g id="Play">
</g>
<g id="Play_1_">
</g>
<g id="g3746" style="fill:#ffffff">
	<path fill="#FFAD00" d="M293.45,287.53l-97.09-71.24c-4.13-3.03-9.52-3.47-14.08-1.17c-4.57,2.31-7.4,6.94-7.4,12.08v92.49   c0,4.23,3.43,7.66,7.66,7.66s7.66-3.43,7.66-7.66v-88.9l92.22,67.67l-95.14,69.8c-3.41,2.5-4.15,7.3-1.65,10.71   c1.5,2.05,3.83,3.13,6.19,3.13c1.57,0,3.16-0.48,4.53-1.49l97.12-71.25c3.46-2.54,5.52-6.61,5.52-10.9   C298.98,294.16,296.9,290.07,293.45,287.53z" id="path3736" style="fill:#ffffff"/>
	<path fill="#FFAD00" d="M636.2,241.27c-2.21-0.72-4.58,0.49-5.3,2.7l-24.14,74.21c-2.15-6.27-4.95-14.54-7.84-23.1   c-5.62-16.64-11.43-33.86-14.32-41.65c-0.89-2.41-3.12-3.96-5.69-3.96l0,0c-2.57,0-4.8,1.55-5.69,3.96   c-0.01,0.03-0.02,0.06-0.03,0.1l-22.16,64.54l-24.1-74.1c-0.72-2.21-3.09-3.41-5.3-2.7c-2.21,0.72-3.41,3.09-2.7,5.3L546.07,330   c0.69,2.06,2.61,3.48,4.79,3.51c2.17,0.03,4.15-1.31,4.9-3.35c0.01-0.03,0.02-0.06,0.03-0.1l23.17-67.47   c3.17,9.04,7.81,22.76,12,35.17c4.74,14.04,9.22,27.31,11.11,32.39c0.75,2.01,2.67,3.35,4.81,3.35c0.03,0,0.06,0,0.09,0   c2.18-0.04,4.1-1.45,4.8-3.54l27.13-83.4C639.6,244.36,638.4,241.99,636.2,241.27z" id="path3738" style="fill:#ffffff"/>
	<path fill="#FFAD00" d="M376.58,241.06c-20.34,0-36.88,16.55-36.88,36.88v51.36c0,2.32,1.88,4.2,4.2,4.2s4.2-1.88,4.2-4.2v-51.36   c0-15.7,12.78-28.48,28.48-28.48s28.48,12.78,28.48,28.48v51.36c0,2.32,1.88,4.2,4.2,4.2s4.2-1.88,4.2-4.2v-51.36   C413.47,257.61,396.91,241.06,376.58,241.06z" id="path3740" style="fill:#ffffff"/>
	<path fill="#FFAD00" d="M476.54,277.24c-12.76,0-24.64,5.09-33.45,14.32s-13.32,21.35-12.72,34.12   c1.12,23.77,20.61,43.08,44.39,43.97c0.58,0.02,1.16,0.03,1.73,0.03c14.61,0,28.4-6.91,37.16-18.71c1.38-1.86,0.99-4.5-0.87-5.88   s-4.5-0.99-5.88,0.87c-7.45,10.04-19.35,15.76-31.83,15.29c-19.45-0.73-35.39-16.52-36.31-35.96   c-0.49-10.46,3.21-20.38,10.41-27.93c7.21-7.56,16.93-11.72,27.37-11.72c19.43,0,35.5,14.58,37.59,33.62h-37.7   c-2.32,0-4.2,1.88-4.2,4.2s1.88,4.2,4.2,4.2h40.18c1.66,0,3.28-0.69,4.42-1.89c1.15-1.2,1.76-2.84,1.68-4.5   C521.55,296.58,501.27,277.24,476.54,277.24z" id="path3742" style="fill:#ffffff"/>
	<path fill="#FFAD00" d="M673.86,280.41c-1.02-0.26-1.9-0.48-2.56-0.69l-0.68-0.2c-7.87-2.36-15.92-5.97-15.92-14.8   c0-0.02,0-0.04,0-0.06c-0.07-4.61,0.79-7.07,3.42-9.75c3.4-3.46,8.76-5.44,14.68-5.44c9.19,0,14.62,3.56,16.6,10.88   c0.61,2.24,2.92,3.56,5.15,2.96c2.24-0.61,3.56-2.91,2.96-5.15c-2.99-11.02-11.76-17.08-24.72-17.08c-8.16,0-15.7,2.9-20.67,7.95   c-4.19,4.26-5.94,8.97-5.84,15.74c0.02,16.25,16.5,21.19,21.91,22.82l0.64,0.19c0.85,0.26,1.82,0.51,2.95,0.79   c10.36,2.63,20.47,6.26,20.47,18.81c0,10.61-7.97,17.75-19.82,17.75c-10.35,0-17.93-5.73-19.78-14.94   c-0.46-2.28-2.68-3.75-4.95-3.29c-2.28,0.46-3.75,2.67-3.29,4.95c2.64,13.18,13.64,21.69,28.02,21.69c7.9,0,15.05-2.56,20.15-7.2   c5.21-4.75,8.08-11.48,8.08-18.95C700.66,287.23,681.89,282.45,673.86,280.41z" id="path3744" style="fill:#ffffff"/>
</g>
</svg>