<?xml version="1.0" encoding="UTF-8" standalone="no"?>
<svg width="231px" height="54px" viewBox="0 0 231 54" version="1.1" xmlns="http://www.w3.org/2000/svg" xmlns:xlink="http://www.w3.org/1999/xlink">
	<!-- Generator: Sketch 41.2 (35397) - http://www.bohemiancoding.com/sketch -->
	<title>Brand/Logos/Services/Friends/Colors</title>
	<desc>Created with Sketch.</desc>
	<defs></defs>
	<g id="Symbols" stroke="none" stroke-width="1" fill="none" fill-rule="evenodd">
		<g id="Brand/Logos/Services/Friends/Colors">
			<path d="M172.1726,9.3534 C165.6386,9.3534 160.3226,14.6694 160.3226,21.2034 L160.3226,37.7034 C160.3226,38.4494 160.9266,39.0534 161.6726,39.0534 C162.4186,39.0534 163.0226,38.4494 163.0226,37.7034 L163.0226,21.2034 C163.0226,16.1584 167.1276,12.0534 172.1726,12.0534 C177.2176,12.0534 181.3226,16.1584 181.3226,21.2034 L181.3226,37.7034 C181.3226,38.4494 181.9266,39.0534 182.6726,39.0534 C183.4186,39.0534 184.0226,38.4494 184.0226,37.7034 L184.0226,21.2034 C184.0226,14.6694 178.7066,9.3534 172.1726,9.3534 Z M195.4205,9.3547 L190.6155,9.3537 L190.6145,9.3537 C190.0145,9.3537 189.4495,9.5867 189.0245,10.0107 C188.5975,10.4357 188.3615,11.0017 188.3615,11.6037 L188.3615,31.4037 C188.3615,32.1487 188.9665,32.7537 189.7115,32.7537 C190.4575,32.7537 191.0615,32.1487 191.0615,31.4037 L191.0615,12.0537 L195.4205,12.0547 C202.1105,12.0547 207.5535,17.4987 207.5535,24.1907 C207.5535,27.4377 206.2965,30.4857 204.0145,32.7727 C201.7275,35.0647 198.6725,36.3267 195.4115,36.3267 C195.3205,36.3267 195.2325,36.3357 195.1465,36.3527 L189.7095,36.3537 C188.9645,36.3537 188.3595,36.9577 188.3595,37.7037 C188.3605,38.4497 188.9645,39.0537 189.7105,39.0537 L195.4125,39.0527 C195.5075,39.0527 195.5995,39.0427 195.6895,39.0237 C199.5685,38.9537 203.1935,37.4177 205.9255,34.6797 C208.7165,31.8837 210.2535,28.1577 210.2535,24.1907 C210.2535,16.0097 203.5995,9.3547 195.4205,9.3547 Z M141.1483,24.2035 C137.0483,24.2035 133.2313,25.8375 130.4003,28.8045 C127.5713,31.7695 126.1203,35.6635 126.3123,39.7675 C126.6713,47.4025 132.9353,53.6075 140.5733,53.8925 C140.7593,53.8995 140.9443,53.9035 141.1303,53.9035 C145.8253,53.9035 150.2553,51.6825 153.0673,47.8905 C153.5113,47.2925 153.3863,46.4465 152.7873,46.0025 C152.1883,45.5585 151.3433,45.6835 150.8983,46.2825 C148.5063,49.5085 144.6833,51.3445 140.6743,51.1945 C134.4263,50.9615 129.3033,45.8865 129.0103,39.6415 C128.8523,36.2805 130.0393,33.0945 132.3543,30.6685 C134.6713,28.2405 137.7943,26.9035 141.1483,26.9035 C147.3913,26.9035 152.5543,31.5875 153.2253,37.7035 L141.1143,37.7035 C140.3683,37.7035 139.7643,38.3075 139.7643,39.0535 C139.7643,39.7995 140.3683,40.4035 141.1143,40.4035 L154.0213,40.4035 C154.5553,40.4035 155.0733,40.1815 155.4423,39.7955 C155.8113,39.4095 156.0083,38.8825 155.9833,38.3495 C155.6123,30.4175 149.0963,24.2035 141.1483,24.2035 Z M89.5524,19.8534 L82.2444,19.8534 C82.2544,19.7744 82.2644,19.6984 82.2744,19.6254 C82.7294,16.3954 84.7894,13.7984 88.3954,11.9064 C89.0554,11.5604 89.3104,10.7444 88.9634,10.0834 C88.6174,9.4234 87.8014,9.1684 87.1414,9.5154 C82.7834,11.8014 80.1764,15.1664 79.6004,19.2484 C79.5734,19.4414 79.5494,19.6444 79.5274,19.8534 L74.4024,19.8534 C73.6564,19.8534 73.0524,20.4574 73.0524,21.2034 C73.0524,21.9494 73.6564,22.5534 74.4024,22.5534 L79.3714,22.5534 C79.3564,23.1334 79.3524,23.6614 79.3524,24.0634 L79.3524,37.7034 C79.3524,38.4494 79.9564,39.0534 80.7024,39.0534 C81.4484,39.0534 82.0524,38.4494 82.0524,37.7034 L82.0524,24.0634 C82.0524,23.5394 82.0594,23.0334 82.0724,22.5534 L89.5524,22.5534 C90.2984,22.5534 90.9024,21.9494 90.9024,21.2034 C90.9024,20.4574 90.2984,19.8534 89.5524,19.8534 Z M104.3,27.2336 C108.573,26.5366 111.845,22.8206 111.845,18.3536 C111.845,13.4276 107.865,9.4146 102.952,9.3576 C102.934,9.3566 102.917,9.3546 102.899,9.3546 L97.373,9.3536 L97.372,9.3536 C96.762,9.3536 96.195,9.5946 95.775,10.0326 C95.371,10.4536 95.149,11.0106 95.149,11.6036 L95.149,37.7036 C95.149,38.4486 95.753,39.0536 96.499,39.0536 C97.244,39.0536 97.849,38.4486 97.849,37.7036 L97.849,12.0536 L102.845,12.0546 L102.846,12.0546 C106.319,12.0546 109.145,14.8806 109.145,18.3536 C109.145,21.8266 106.319,24.6526 102.846,24.6526 C102.843,24.6526 102.841,24.6536 102.838,24.6536 L101.006,24.6516 L101.005,24.6516 C100.99,24.6516 100.976,24.6536 100.962,24.6536 C100.936,24.6546 100.91,24.6556 100.884,24.6576 C100.863,24.6596 100.842,24.6626 100.821,24.6656 C100.799,24.6686 100.777,24.6716 100.755,24.6756 C100.732,24.6806 100.71,24.6856 100.688,24.6906 C100.667,24.6956 100.647,24.7006 100.627,24.7066 C100.605,24.7126 100.584,24.7206 100.562,24.7276 C100.542,24.7346 100.522,24.7416 100.502,24.7496 C100.482,24.7576 100.463,24.7666 100.443,24.7756 C100.422,24.7846 100.401,24.7946 100.381,24.8056 C100.363,24.8146 100.346,24.8246 100.329,24.8346 C100.308,24.8466 100.287,24.8586 100.267,24.8726 C100.251,24.8826 100.235,24.8946 100.219,24.9056 C100.2,24.9196 100.18,24.9336 100.161,24.9496 C100.144,24.9626 100.129,24.9766 100.113,24.9896 C100.096,25.0046 100.079,25.0196 100.063,25.0356 C100.045,25.0526 100.029,25.0716 100.012,25.0896 C100.001,25.1006 99.99,25.1106 99.98,25.1226 C99.978,25.1256 99.976,25.1296 99.973,25.1326 C99.955,25.1536 99.939,25.1756 99.923,25.1976 C99.912,25.2116 99.901,25.2246 99.891,25.2386 C99.877,25.2606 99.863,25.2836 99.85,25.3056 C99.84,25.3216 99.83,25.3366 99.821,25.3526 C99.81,25.3736 99.8,25.3956 99.789,25.4176 C99.781,25.4356 99.771,25.4536 99.763,25.4716 C99.754,25.4916 99.747,25.5136 99.74,25.5346 C99.732,25.5546 99.724,25.5746 99.718,25.5946 C99.711,25.6146 99.707,25.6346 99.701,25.6556 C99.696,25.6776 99.689,25.7006 99.684,25.7226 C99.68,25.7416 99.678,25.7596 99.675,25.7786 C99.671,25.8036 99.666,25.8296 99.663,25.8546 C99.661,25.8726 99.661,25.8906 99.66,25.9076 C99.658,25.9346 99.656,25.9616 99.655,25.9886 L99.655,26.0006 C99.655,26.0006 99.657,26.0316 99.657,26.0466 C99.658,26.0716 99.659,26.0966 99.661,26.1216 C99.663,26.1436 99.666,26.1656 99.669,26.1876 C99.672,26.2086 99.675,26.2296 99.679,26.2506 C99.683,26.2746 99.689,26.2976 99.694,26.3206 C99.699,26.3396 99.704,26.3596 99.709,26.3786 C99.716,26.4016 99.723,26.4236 99.731,26.4456 C99.738,26.4656 99.745,26.4846 99.752,26.5036 C99.761,26.5246 99.77,26.5446 99.779,26.5646 C99.788,26.5846 99.797,26.6046 99.808,26.6246 C99.817,26.6426 99.828,26.6606 99.838,26.6786 C99.85,26.6986 99.862,26.7196 99.875,26.7386 C99.886,26.7556 99.897,26.7716 99.909,26.7886 C99.923,26.8076 99.937,26.8266 99.952,26.8456 C99.965,26.8626 99.98,26.8786 99.994,26.8946 C100.008,26.9106 100.023,26.9276 100.038,26.9436 C100.056,26.9616 100.075,26.9786 100.093,26.9956 C100.104,27.0056 100.114,27.0166 100.126,27.0266 C103.473,29.8996 107.935,35.1066 110.315,38.4816 C110.578,38.8546 110.995,39.0536 111.419,39.0536 C111.688,39.0536 111.959,38.9736 112.196,38.8066 C112.805,38.3766 112.951,37.5346 112.521,36.9256 C110.599,34.1996 107.365,30.2956 104.3,27.2336 Z M221.867,21.9937 C221.539,21.9097 221.255,21.8377 221.043,21.7737 L220.826,21.7077 C218.296,20.9487 215.71,19.7897 215.71,16.9537 L215.71,16.9397 C215.687,15.4507 215.965,14.6597 216.81,13.8007 C217.904,12.6907 219.623,12.0537 221.527,12.0537 C224.48,12.0537 226.224,13.1957 226.862,15.5477 C227.057,16.2667 227.798,16.6927 228.518,16.4967 C229.237,16.3017 229.663,15.5607 229.468,14.8407 C228.509,11.3027 225.688,9.3537 221.527,9.3537 C218.904,9.3537 216.484,10.2837 214.886,11.9067 C213.539,13.2747 212.978,14.7877 213.01,16.9637 C213.017,22.1837 218.31,23.7717 220.05,24.2937 L220.254,24.3557 C220.527,24.4387 220.84,24.5187 221.201,24.6107 C224.529,25.4567 227.777,26.6207 227.777,30.6517 C227.777,34.0627 225.218,36.3537 221.408,36.3537 C218.082,36.3537 215.647,34.5137 215.053,31.5527 C214.907,30.8217 214.194,30.3487 213.464,30.4947 C212.733,30.6417 212.26,31.3527 212.406,32.0837 C213.255,36.3177 216.789,39.0537 221.408,39.0537 C223.946,39.0537 226.245,38.2317 227.882,36.7387 C229.555,35.2127 230.477,33.0507 230.477,30.6517 C230.477,24.1847 224.444,22.6497 221.867,21.9937 Z M120.3963,9.3534 C119.6503,9.3534 119.0463,9.9574 119.0463,10.7034 L119.0463,37.7034 C119.0463,38.4494 119.6503,39.0534 120.3963,39.0534 C121.1423,39.0534 121.7463,38.4494 121.7463,37.7034 L121.7463,10.7034 C121.7463,9.9574 121.1423,9.3534 120.3963,9.3534 Z" id="Combined-Shape" fill="#FFFFFF"></path>
			<path d="M29.5944,49.028 C29.6964,49.119 29.8534,49.119 29.9554,49.028 L50.9164,27.138 C53.3244,24.668 54.6424,21.427 54.6424,17.995 C54.6434,14.506 53.2804,11.222 50.8054,8.747 C48.3304,6.272 45.0464,4.91 41.5584,4.91 C38.1854,4.91 33.9214,6.644 32.0694,11.511 C31.7174,12.434 30.8464,13.057 29.8594,13.091 C28.8774,13.118 27.9604,12.563 27.5454,11.666 C26.3824,9.142 23.5934,4.91 17.9924,4.91 C10.7784,4.91 4.9094,10.779 4.9094,17.994 C4.9094,21.423 6.2244,24.662 8.6114,27.115 L29.5944,49.028 Z M31.6954,50.761 L31.6974,50.761 L31.6954,50.761 Z M29.7754,54 C28.4534,54 27.1324,53.501 26.1264,52.504 C26.1114,52.489 26.0964,52.474 26.0814,52.459 L5.0794,30.525 C1.8084,27.165 0.0004,22.709 0.0004,17.994 C0.0004,8.072 8.0714,0 17.9924,0 C22.6594,0 26.7504,2.059 29.6754,5.772 C32.8594,1.588 37.6174,0 41.5584,0 C46.3574,0 50.8744,1.873 54.2764,5.275 C57.6794,8.678 59.5534,13.195 59.5524,17.995 C59.5524,22.715 57.7394,27.173 54.4464,30.55 L33.4684,52.459 C33.4534,52.474 33.4384,52.489 33.4234,52.504 C32.4174,53.501 31.0964,54 29.7754,54 L29.7754,54 Z" id="Fill-15" fill="#FFFFFF"></path>
		</g>
	</g>
</svg>