<?xml version="1.0" encoding="UTF-8" standalone="no"?>
<svg width="20px" height="20px" viewBox="0 0 20 20" version="1.1" xmlns="http://www.w3.org/2000/svg" xmlns:xlink="http://www.w3.org/1999/xlink">
    <!-- Generator: Sketch 41.2 (35397) - http://www.bohemiancoding.com/sketch -->
    <title>icons/search_brandblue</title>
    <desc>Created with Sketch.</desc>
    <defs></defs>
    <g id="Symbols" stroke="none" stroke-width="1" fill="none" fill-rule="evenodd">
        <g id="icons/search_brandblue" fill="#1E244D">
            <path d="M3.9054667,12.6903251 C2.72714252,11.5170057 2.07877775,9.95511958 2.07877775,8.2932346 C2.07877775,6.63039726 2.72714252,5.07041583 3.9054667,3.89614409 C5.082836,2.71996762 6.64788732,2.07330865 8.31415612,2.07330865 C9.98042492,2.07330865 11.5454762,2.71996762 12.7228455,3.89709646 C13.9021246,5.07041583 14.5504894,6.63039726 14.5504894,8.2932346 C14.5504894,9.95511958 13.9021246,11.5170057 12.7228455,12.6912775 C11.5454762,13.8655492 9.98042492,14.5131606 8.31415612,14.5131606 C6.64788732,14.5131606 5.082836,13.8655492 3.9054667,12.6903251 M19.6963476,18.2321639 L14.8550967,13.40365 C16.0009549,11.9503339 16.6292671,10.1713075 16.6292671,8.2932346 C16.6292671,6.07802288 15.7631893,3.99519053 14.1933636,2.42949489 C12.6235378,0.86379924 10.5352113,0 8.31415612,0 C6.09310098,0 4.00477441,0.86379924 2.43590356,2.42854252 C0.865122941,3.99519053 0,6.07802288 0,8.2932346 C0,10.5084463 0.865122941,12.5912787 2.43590356,14.156022 C4.00477441,15.7236223 6.09310098,16.5855168 8.31415612,16.5855168 C10.1714013,16.5855168 11.9312485,15.9750479 13.3778945,14.8607755 L18.2286942,19.6978607 C18.6326092,20.1007131 19.288613,20.1007131 19.692528,19.6978607 L19.6963476,19.6930989 C20.1012175,19.2902465 20.1012175,18.6359686 19.6963476,18.2321639" id="Fill-1"></path>
        </g>
    </g>
</svg>