<?xml version="1.0" encoding="utf-8"?>
<!-- Generator: Adobe Illustrator 21.0.0, SVG Export Plug-In . SVG Version: 6.00 Build 0)  -->
<svg version="1.1" id="Calque_1" xmlns="http://www.w3.org/2000/svg" xmlns:xlink="http://www.w3.org/1999/xlink" x="0px" y="0px"
	 viewBox="0 0 54.4 22" style="enable-background:new 0 0 54.4 22;" xml:space="preserve">
<style type="text/css">
	.st0{fill:#FFFFFF;}
</style>
<title>Brand/Logos/Services/Live/White</title>
<desc>Created with Sketch.</desc>
<g id="Symbols">
	<g id="Brand_x2F_Logos_x2F_Services_x2F_Live_x2F_White">
		<g id="Group-2" transform="translate(33.000000, 16.000000)">
			<path id="Fill-1" class="st0" d="M-17.5-6.3l-12.7-9.3c-0.5-0.4-1.2-0.5-1.8-0.2c-0.6,0.3-1,0.9-1,1.6v12.1c0,0.6,0.4,1,1,1
				c0.6,0,1-0.4,1-1v-11.6l12,8.8l-12.4,9.1c-0.4,0.3-0.5,1-0.2,1.4c0.2,0.3,0.5,0.4,0.8,0.4c0.2,0,0.4-0.1,0.6-0.2l12.7-9.3
				c0.5-0.3,0.7-0.9,0.7-1.4C-16.8-5.4-17.1-5.9-17.5-6.3"/>
			<path id="Combined-Shape" class="st0" d="M-5-2.2h-5.2v-10.4c0-0.3-0.2-0.6-0.5-0.6s-0.6,0.2-0.6,0.6v10.7c0,0.5,0.4,0.9,0.9,0.9
				H-5c0.3,0,0.5-0.2,0.5-0.5C-4.4-1.9-4.7-2.2-5-2.2z M10.6-13.1c-0.3-0.1-0.6,0-0.7,0.3L5.3-2.2l0,0l0,0l0,0L0.6-12.8
				c-0.1-0.3-0.5-0.4-0.7-0.3c-0.3,0.1-0.4,0.4-0.3,0.7L4.3-1.7C4.5-1.3,4.9-1,5.3-1s0.8-0.3,1-0.7L11-12.4
				C11.1-12.7,10.9-13,10.6-13.1z M15.4-7.1c-1.7,0-3.2,0.7-4.4,1.9S9.3-2.4,9.3-0.7c0.1,3.1,2.7,5.6,5.8,5.8c0.1,0,0.2,0,0.2,0
				c1.9,0,3.7-0.9,4.9-2.4c0.2-0.2,0.1-0.6-0.1-0.8c-0.2-0.2-0.6-0.1-0.8,0.1c-1,1.3-2.5,2.1-4.2,2c-2.5-0.1-4.6-2.2-4.8-4.7
				c-0.1-1.4,0.4-2.7,1.4-3.7c0.9-1,2.2-1.5,3.6-1.5c2.5,0,4.6,1.9,4.9,4.4h-4.8c-0.3,0-0.5,0.2-0.5,0.6c0,0.3,0.2,0.5,0.5,0.5h5.3
				c0.2,0,0.4-0.1,0.6-0.2c0.1-0.3,0.1-0.5,0.1-0.7C21.3-4.6,18.6-7.1,15.4-7.1z M-2.6-13.2c-0.3,0-0.6,0.2-0.6,0.6v11
				c0,0.3,0.2,0.5,0.6,0.5c0.3,0,0.5-0.2,0.5-0.5v-11C-2-12.9-2.3-13.2-2.6-13.2z"/>
		</g>
	</g>
</g>
</svg>
