<?xml version="1.0" encoding="utf-8"?>
<!-- Generator: Adobe Illustrator 22.1.0, SVG Export Plug-In . SVG Version: 6.00 Build 0)  -->
<!DOCTYPE svg PUBLIC "-//W3C//DTD SVG 1.1//EN" "http://www.w3.org/Graphics/SVG/1.1/DTD/svg11.dtd">
<svg version="1.1" id="Calque_1" xmlns="http://www.w3.org/2000/svg" xmlns:xlink="http://www.w3.org/1999/xlink" x="0px" y="0px"
	 viewBox="0 0 841.9 595.3" style="enable-background:new 0 0 841.9 595.3;" xml:space="preserve">
<style type="text/css">
	.st0{fill:#FFFFFF;}
	.st1{fill:#293171;}
</style>
<g id="BG_Base">
	<g id="Play_1_">
	</g>
</g>
<g>
	<path class="st0" d="M243.6,354.7c-33.5,0-60.7-27.2-60.7-60.7c0-3,2.5-5.5,5.5-5.5s5.5,2.5,5.5,5.5c0,27.4,22.3,49.7,49.7,49.7
		s49.7-22.3,49.7-49.7c0-3,2.5-5.5,5.5-5.5s5.5,2.5,5.5,5.5C304.3,327.5,277,354.7,243.6,354.7z"/>
	<circle class="st0" cx="188.4" cy="270.7" r="7.4"/>
	<circle class="st0" cx="298.8" cy="270.7" r="7.4"/>
</g>
<path class="st1" d="M447.3,264.3c-0.9-2.1-3-3.5-5.3-3.5s-4.3,1.3-5.3,3.5l-24.1,55.1c-0.6,1.4,0,3.1,1.5,3.7
	c1.4,0.6,3.1,0,3.7-1.5l24.1-55.1l0,0h0.1l0,0l24.1,55.1c0.5,1.1,1.5,1.7,2.6,1.7c0.4,0,0.8-0.1,1.1-0.2c1.4-0.6,2.1-2.3,1.5-3.7
	L447.3,264.3z"/>
<path class="st1" d="M552.5,261c-1.2-0.4-2.5,0.1-3.2,1.2l-26,40.2l-26-40.2c-0.7-1.1-2-1.5-3.2-1.2c-1.2,0.4-2,1.5-2,2.7v56.8
	c0,1.6,1.3,2.8,2.8,2.8s2.8-1.3,2.8-2.8v-47.2l23.2,35.8c0.5,0.8,1.4,1.3,2.4,1.3s1.9-0.5,2.4-1.3l23.2-35.8v47.2
	c0,1.6,1.3,2.8,2.8,2.8s2.8-1.3,2.8-2.8v-56.8C554.6,262.5,553.7,261.4,552.5,261z"/>
<path class="st1" d="M605.2,291.9c-8.6,0-16.7,3.4-22.6,9.7c-6,6.2-9,14.4-8.6,23.1c0.8,16.1,13.9,29.1,30,29.7c0.4,0,0.8,0,1.2,0
	c9.9,0,19.2-4.7,25.1-12.7c0.9-1.3,0.7-3-0.6-4c-1.3-0.9-3-0.7-4,0.6c-5,6.8-13.1,10.7-21.5,10.3c-13.2-0.5-23.9-11.2-24.6-24.3
	c-0.3-7.1,2.2-13.8,7-18.9c4.9-5.1,11.5-7.9,18.5-7.9c13.1,0,24,9.9,25.4,22.7H605c-1.6,0-2.8,1.3-2.8,2.8s1.3,2.8,2.8,2.8h27.2
	c1.1,0,2.2-0.5,3-1.3s1.2-1.9,1.1-3C635.7,305,622,291.9,605.2,291.9z"/>
<path class="st1" d="M391,294.4h-17.9c-1.6,0-2.8,1.3-2.8,2.8s1.3,2.8,2.8,2.8h16.7c-3.4,10.5-13.2,17.7-24.3,17.7
	c-5.9,0-11.7-2.1-16.3-5.9c-5.9-4.9-9.3-12.1-9.3-19.7c0-1.4,0.1-2.9,0.4-4.3c2.1-12.3,12.7-21.2,25.2-21.2c6.1,0,12.1,2.2,16.7,6.1
	c1.2,1,3,0.9,4-0.3c1-1.2,0.9-3-0.3-4c-5.6-4.8-12.9-7.5-20.4-7.5c-7.4,0-14.6,2.6-20.2,7.5c-5.6,4.7-9.3,11.3-10.5,18.5
	c-0.3,1.7-0.4,3.5-0.4,5.3c0,9.3,4.1,18.1,11.3,24.1c5.6,4.6,12.6,7.2,19.9,7.2c14.1,0,26.5-9.5,30.1-23c0.4-1.4,0.1-2.9-0.8-4.1
	C393.9,295.1,392.5,294.4,391,294.4z"/>
<path class="st1" d="M676.4,287.5c-0.7-0.2-1.3-0.3-1.7-0.5l-0.5-0.1c-5.3-1.6-10.8-4-10.8-10l0,0c0-3.1,0.5-4.8,2.3-6.6
	c2.3-2.3,5.9-3.7,9.9-3.7c6.2,0,9.9,2.4,11.2,7.4c0.4,1.5,2,2.4,3.5,2s2.4-2,2-3.5c-2-7.4-8-11.6-16.7-11.6c-5.5,0-10.6,2-14,5.4
	c-2.8,2.9-4,6.1-3.9,10.6c0,11,11.2,14.3,14.8,15.4l0.4,0.1c0.6,0.2,1.2,0.3,2,0.5c7,1.8,13.8,4.2,13.8,12.7c0,7.2-5.4,12-13.4,12
	c-7,0-12.1-3.9-13.4-10.1c-0.3-1.5-1.8-2.5-3.3-2.2s-2.5,1.8-2.2,3.3c1.8,8.9,9.2,14.7,19,14.7c5.3,0,10.2-1.7,13.6-4.9
	c3.5-3.2,5.5-7.8,5.5-12.8C694.5,292.1,681.8,288.9,676.4,287.5z"/>
</svg>
