<?xml version="1.0" encoding="UTF-8" standalone="no"?>
<svg width="20px" height="18px" viewBox="0 0 20 18" version="1.1" xmlns="http://www.w3.org/2000/svg" xmlns:xlink="http://www.w3.org/1999/xlink">
    <!-- Generator: Sketch 41.2 (35397) - http://www.bohemiancoding.com/sketch -->
    <title>icon/coeur/blanc</title>
    <desc>Created with Sketch.</desc>
    <defs></defs>
    <g id="Symbols" stroke="none" stroke-width="1" fill="none" fill-rule="evenodd">
        <g id="icon/coeur/blanc" fill="#FFFFFF">
            <g id="Shape">
                <path d="M9.99959808,18 C9.5558087,18 9.11211103,17.8337891 8.77423764,17.5012761 C8.76922762,17.4963056 8.7642176,17.4912441 8.75929712,17.4861826 L1.70573678,10.1749317 C0.607402608,9.05487149 -1.77635684e-15,7.56980261 -1.77635684e-15,5.99798658 C-1.77635684e-15,2.69072093 2.71058937,0 6.04244633,0 C7.6099738,0 8.98392073,0.686330932 9.96605232,1.92385865 C11.035403,0.52926537 12.6333445,0 13.9569268,0 C15.5687343,0 17.0856308,0.624445923 18.228245,1.75835762 C19.3710382,2.89253708 20.0002685,4.39829316 19.9999999,5.99843095 C19.9999999,7.57157791 19.3910761,9.05779999 18.2853187,10.1833662 L11.2398969,17.4861826 C11.2349764,17.4913329 11.2299685,17.4963945 11.224869,17.5013649 C10.8870851,17.8337001 10.4432957,17.9999111 9.99959808,18 Z M10.6444809,16.9202477 L10.6453764,16.9202477 L10.6444809,16.9202477 Z M9.93894701,16.342681 C9.97329652,16.3728702 10.0258079,16.3729591 10.0603386,16.3425921 L17.0996759,9.04616822 C17.9085313,8.22274804 18.3511566,7.14219906 18.3511566,5.99825314 C18.3513357,4.83530755 17.8936825,3.74063943 17.0623737,2.91562169 C16.2312418,2.09078056 15.1283453,1.63654066 13.9569268,1.63654066 C12.8241536,1.63654066 11.3921503,2.21455058 10.7700768,3.83688652 C10.6520856,4.14471394 10.3595667,4.35230044 10.0278653,4.36366559 C9.69813153,4.37281102 9.39004751,4.18777702 9.25094387,3.8885607 C8.8601136,3.04747179 7.92351555,1.63654072 6.04244633,1.63654072 C3.61981457,1.63654072 1.64884221,3.59307387 1.64884221,5.99798658 C1.64884221,7.14104484 2.09030569,8.22070611 2.89191574,9.03826708 L9.93894701,16.342681 Z"></path>
            </g>
        </g>
    </g>
</svg>