<?xml version="1.0" encoding="utf-8"?>
<!-- Generator: Adobe Illustrator 15.0.0, SVG Export Plug-In . SVG Version: 6.00 Build 0)  -->
<!DOCTYPE svg PUBLIC "-//W3C//DTD SVG 1.1//EN" "http://www.w3.org/Graphics/SVG/1.1/DTD/svg11.dtd">
<svg version="1.1" id="Layer_1" xmlns="http://www.w3.org/2000/svg" xmlns:xlink="http://www.w3.org/1999/xlink" x="0px" y="0px"
	 width="595.28px" height="841.89px" viewBox="0 0 595.28 841.89" enable-background="new 0 0 595.28 841.89" xml:space="preserve">
<path fill="#F99F1C" d="M418.837,492H164.268c-6.035,0-10.934-4.883-10.934-10.926V314.4c0-6.046,4.898-10.949,10.934-10.949
	h254.569c6.043,0,10.941,4.902,10.941,10.949v33.206c0,4.063-2.259,7.797-5.867,9.686l-127.854,64.453
	c-3.525,1.847-7.774,1.633-11.102-0.557l-92.854-64.457c-5.044-3.33-6.44-10.109-3.105-15.156
	c3.318-5.048,10.094-6.433,15.152-3.102l87.477,60.901l116.278-58.396V325.33H175.209v144.795h232.694v-73.688
	c0-6.047,4.898-10.949,10.934-10.949c6.043,0,10.941,4.902,10.941,10.949v84.638C429.778,487.117,424.88,492,418.837,492"/>
</svg>
