<?xml version="1.0" encoding="utf-8"?>
<!-- Generator: Adobe Illustrator 15.0.0, SVG Export Plug-In . SVG Version: 6.00 Build 0)  -->
<!DOCTYPE svg PUBLIC "-//W3C//DTD SVG 1.1//EN" "http://www.w3.org/Graphics/SVG/1.1/DTD/svg11.dtd">
<svg version="1.1" id="Layer_1" xmlns="http://www.w3.org/2000/svg" xmlns:xlink="http://www.w3.org/1999/xlink" x="0px" y="0px"
	 width="595.28px" height="841.89px" viewBox="0 0 595.28 841.89" enable-background="new 0 0 595.28 841.89" xml:space="preserve">
<path fill="#F99F1C" d="M297.64,288c-64.687,0-117.311,52.629-117.311,117.311c0,64.693,52.624,117.311,117.311,117.311
	c23.921,0,46.845-7.057,66.309-20.426l-13.267-19.338c-15.558,10.665-33.887,16.302-53.042,16.302
	c-51.747,0-93.849-42.102-93.849-93.849s42.102-93.849,93.849-93.849c51.748,0,93.849,42.102,93.849,93.849v9.183
	c0,16.284-7.011,26.011-18.765,26.011l-0.023,0.206c-0.71-0.138-1.466-0.206-2.223-0.206h-2.451
	c-6.599,0-16.428-9.601-16.428-16.062v-19.132c0-29.746-24.207-53.958-53.959-53.958c-29.751,0-53.958,24.212-53.958,53.958
	c0,29.752,24.207,53.959,53.958,53.959c14.48,0,27.563-5.797,37.267-15.111c7.619,11.238,20.564,19.808,33.12,19.808l0.023-0.206
	c0.732,0.138,1.489,0.206,2.268,0.206h2.406c25.249,0,42.228-19.876,42.228-49.473v-9.183C414.951,340.629,362.321,288,297.64,288z
	 M297.64,435.807c-16.817,0-30.496-13.679-30.496-30.496c0-16.812,13.679-30.496,30.496-30.496s30.496,13.685,30.496,30.496
	C328.136,422.128,314.457,435.807,297.64,435.807z"/>
</svg>
