<?xml version="1.0" encoding="utf-8"?>
<!-- Generator: Adobe Illustrator 21.0.0, SVG Export Plug-In . SVG Version: 6.00 Build 0)  -->
<svg version="1.1" id="Calque_1" xmlns="http://www.w3.org/2000/svg" xmlns:xlink="http://www.w3.org/1999/xlink" x="0px" y="0px"
	 viewBox="0 0 137 54" style="enable-background:new 0 0 137 54;" xml:space="preserve">
<style type="text/css">
	.st0{fill:#FFAD00;}
	.st1{fill:#303F9F;}
</style>
<title>Brand/Logos/Services/Live/Colors</title>
<desc>Created with Sketch.</desc>
<g id="Symbols">
	<g id="Brand_x2F_Logos_x2F_Services_x2F_Live_x2F_Colors">
		<path id="Fill-1" class="st0" d="M39,24.3L7.1,0.9c-1.4-1-3.1-1.1-4.6-0.4C0.9,1.2,0,2.8,0,4.5v30.4c0,1.4,1.1,2.5,2.5,2.5
			c1.4,0,2.5-1.1,2.5-2.5V5.6l30.3,22.3l-31.3,23c-1.1,0.8-1.4,2.4-0.5,3.5c0.5,0.7,1.3,1,2,1c0.5,0,1-0.2,1.5-0.5L39,31.5
			c1.1-0.8,1.8-2.2,1.8-3.6C40.8,26.5,40.1,25.1,39,24.3"/>
		<path id="Combined-Shape" class="st1" d="M70.5,34.6H57.4V8.3c0-0.8-0.6-1.4-1.4-1.4c-0.8,0-1.4,0.6-1.4,1.4v26.9
			c0,1.2,1,2.2,2.2,2.2h13.7c0.8,0,1.4-0.6,1.4-1.4C71.9,35.2,71.3,34.6,70.5,34.6z M109.9,7c-0.7-0.3-1.5,0-1.8,0.7L96.3,34.6
			c0,0,0,0,0,0c0,0,0,0,0,0c0,0,0,0,0,0L84.5,7.8c-0.3-0.7-1.1-1-1.8-0.7c-0.7,0.3-1,1.1-0.7,1.8l11.7,26.8c0.5,1,1.4,1.7,2.6,1.7
			c1.1,0,2.1-0.6,2.6-1.7l11.7-26.8C110.9,8.2,110.6,7.3,109.9,7z M121.8,22.2c-4.2,0-8.1,1.7-11,4.7c-2.9,3-4.4,7-4.2,11.2
			c0.4,7.8,6.8,14.2,14.6,14.5c0.2,0,0.4,0,0.6,0c4.8,0,9.4-2.3,12.2-6.2c0.5-0.6,0.3-1.5-0.3-1.9c-0.6-0.5-1.5-0.3-1.9,0.3
			c-2.5,3.3-6.4,5.2-10.5,5c-6.4-0.2-11.7-5.4-12-11.8c-0.2-3.4,1.1-6.7,3.4-9.2c2.4-2.5,5.6-3.9,9-3.9c6.4,0,11.7,4.8,12.4,11.1
			h-12.4c-0.8,0-1.4,0.6-1.4,1.4s0.6,1.4,1.4,1.4H135c0.5,0,1.1-0.2,1.5-0.6c0.4-0.4,0.6-0.9,0.6-1.5
			C136.6,28.5,129.9,22.2,121.8,22.2z M76.6,6.9c-0.8,0-1.4,0.6-1.4,1.4V36c0,0.8,0.6,1.4,1.4,1.4S78,36.8,78,36V8.3
			C78,7.5,77.4,6.9,76.6,6.9z"/>
	</g>
</g>
</svg>
