<?xml version="1.0" encoding="UTF-8" standalone="no"?>
<svg width="20px" height="20px" viewBox="0 0 20 20" version="1.1" xmlns="http://www.w3.org/2000/svg" xmlns:xlink="http://www.w3.org/1999/xlink">
    <!-- Generator: Sketch 41.2 (35397) - http://www.bohemiancoding.com/sketch -->
    <title>icons/play</title>
    <desc>Created with Sketch.</desc>
    <defs/>
    <g id="Symbols" stroke="none" stroke-width="1" fill="none" fill-rule="evenodd">
        <g id="icons/play" fill="#FFFFFF">
            <path d="M13.1136667,10.5463333 L8.319,13.9346667 C8.25166667,13.9823333 8.17333333,14.0053333 8.09566667,14.0053333 C7.97933333,14.0053333 7.86433333,13.9536667 7.79033333,13.8563333 C7.66666667,13.694 7.703,13.466 7.87133333,13.347 L12.5686667,10.0273333 L8.01566667,6.80933333 L8.01566667,11.0373333 C8.01566667,11.2386667 7.84633333,11.402 7.63733333,11.402 C7.42833333,11.402 7.259,11.2386667 7.259,11.0373333 L7.259,6.63866667 C7.259,6.39466667 7.399,6.17433333 7.62433333,6.06433333 C7.84933333,5.95466667 8.11566667,5.976 8.31933333,6.12 L13.113,9.508 C13.284,9.62866667 13.3863333,9.823 13.3863333,10.0276667 C13.3863333,10.232 13.2843333,10.4256667 13.1136667,10.5463333 M10,0 C4.47733333,0 0,4.47733333 0,10 C0,15.523 4.47733333,20 10,20 C15.523,20 20,15.523 20,10 C20,4.47733333 15.523,0 10,0" id="Fill-1"/>
        </g>
    </g>
</svg>