<?xml version="1.0" encoding="UTF-8" standalone="no"?>
<svg width="20px" height="20px" viewBox="0 0 20 20" version="1.1" xmlns="http://www.w3.org/2000/svg" xmlns:xlink="http://www.w3.org/1999/xlink">
    <!-- Generator: Sketch 41.2 (35397) - http://www.bohemiancoding.com/sketch -->
    <title>icons/liveplay_dark</title>
    <desc>Created with Sketch.</desc>
    <defs/>
    <g id="Symbols" stroke="none" stroke-width="1" fill="none" fill-rule="evenodd">
        <g id="icons/liveplay_dark" fill="#1E244D">
            <path d="M17.089022,8.78798677 L5.55258126,0.312915362 C5.06443668,-0.0473150087 4.41465518,-0.100811645 3.87416726,0.174731213 C3.33367935,0.450274071 2.9952734,1.00755254 3.00004991,1.61420585 L3.00004991,12.6084422 C3.00004991,13.1105988 3.40712829,13.5176772 3.90928493,13.5176772 C4.41144157,13.5176772 4.81851995,13.1105988 4.81851995,12.6084422 L4.81851995,2.03962774 L15.7793899,10.0809357 L4.47651412,18.3558085 C4.21425926,18.5480294 4.0744744,18.8655601 4.10981514,19.1887899 C4.14515588,19.5120197 4.35025312,19.7918423 4.64784872,19.9228512 C4.94544432,20.0538602 5.29032641,20.016152 5.55258126,19.8239311 L17.0973636,11.3822261 C17.5100079,11.0788632 17.7536925,10.5972631 17.7536925,10.0851065 C17.7536925,9.57294986 17.5100079,9.09134968 17.0973636,8.78798677 L17.089022,8.78798677 Z" id="Shape"/>
        </g>
    </g>
</svg>