<?xml version="1.0" encoding="UTF-8"?>
<!-- Generator: Adobe Illustrator 23.0.1, SVG Export Plug-In . SVG Version: 6.00 Build 0)  -->
<svg version="1.1" id="Calque_1" xmlns="http://www.w3.org/2000/svg" xmlns:xlink="http://www.w3.org/1999/xlink" x="0px" y="0px" viewBox="0 0 841.89 595.28" enable-background="new 0 0 841.89 595.28" xml:space="preserve">
<g id="Play">
</g>
<g id="Play_1_">
</g>
<g>
	<path fill="#FFAD00" d="M267.49,287.53l-97.09-71.24c-4.13-3.03-9.52-3.47-14.08-1.17c-4.57,2.31-7.4,6.94-7.4,12.08v92.49   c0,4.23,3.43,7.66,7.66,7.66s7.66-3.43,7.66-7.66v-88.9l92.22,67.67l-95.14,69.8c-3.41,2.5-4.15,7.3-1.65,10.71   c1.5,2.05,3.83,3.13,6.19,3.13c1.57,0,3.16-0.48,4.53-1.49l97.12-71.25c3.46-2.54,5.52-6.61,5.52-10.9   C273.03,294.16,270.96,290.07,267.49,287.53z"/>
	<path fill="#303F9F" d="M611.25,241.27c-2.21-0.72-4.58,0.49-5.3,2.7l-24.14,74.21c-2.15-6.27-4.95-14.54-7.84-23.1   c-5.62-16.64-11.43-33.86-14.32-41.65c-0.89-2.41-3.12-3.96-5.69-3.96h0c-2.57,0-4.8,1.55-5.69,3.96c-0.01,0.03-0.02,0.06-0.03,0.1   l-22.16,64.54l-24.1-74.1c-0.72-2.21-3.09-3.41-5.3-2.7c-2.21,0.72-3.41,3.09-2.7,5.3l27.14,83.43c0.69,2.06,2.61,3.48,4.79,3.51   c2.17,0.03,4.15-1.31,4.9-3.35c0.01-0.03,0.02-0.06,0.03-0.1l23.17-67.47c3.17,9.04,7.81,22.76,12,35.17   c4.74,14.04,9.22,27.31,11.11,32.39c0.75,2.01,2.67,3.35,4.81,3.35c0.03,0,0.06,0,0.09,0c2.18-0.04,4.1-1.45,4.8-3.54l27.13-83.4   C614.66,244.36,613.45,241.99,611.25,241.27z"/>
	<path fill="#303F9F" d="M350.63,241.06c-20.34,0-36.88,16.55-36.88,36.88v51.36c0,2.32,1.88,4.2,4.2,4.2c2.32,0,4.2-1.88,4.2-4.2   v-51.36c0-15.7,12.78-28.48,28.48-28.48c15.7,0,28.48,12.78,28.48,28.48v51.36c0,2.32,1.88,4.2,4.2,4.2s4.2-1.88,4.2-4.2v-51.36   C387.51,257.61,370.97,241.06,350.63,241.06z"/>
	<path fill="#303F9F" d="M450.58,277.24c-12.76,0-24.64,5.09-33.45,14.32c-8.81,9.23-13.32,21.35-12.72,34.12   c1.12,23.77,20.61,43.08,44.39,43.97c0.58,0.02,1.16,0.03,1.73,0.03c14.61,0,28.4-6.91,37.16-18.71c1.38-1.86,0.99-4.5-0.87-5.88   c-1.86-1.38-4.5-0.99-5.88,0.87c-7.45,10.04-19.35,15.76-31.83,15.29c-19.45-0.73-35.39-16.52-36.31-35.96   c-0.49-10.46,3.21-20.38,10.41-27.93c7.21-7.56,16.93-11.72,27.37-11.72c19.43,0,35.5,14.58,37.59,33.62h-37.7   c-2.32,0-4.2,1.88-4.2,4.2c0,2.32,1.88,4.2,4.2,4.2h40.18c1.66,0,3.28-0.69,4.42-1.89c1.15-1.2,1.76-2.84,1.68-4.5   C495.61,296.58,475.32,277.24,450.58,277.24z"/>
	<path fill="#303F9F" d="M648.92,280.41c-1.02-0.26-1.9-0.48-2.56-0.69l-0.68-0.2c-7.87-2.36-15.92-5.97-15.92-14.8   c0-0.02,0-0.04,0-0.06c-0.07-4.61,0.79-7.07,3.42-9.75c3.4-3.46,8.76-5.44,14.68-5.44c9.19,0,14.62,3.56,16.6,10.88   c0.61,2.24,2.92,3.56,5.15,2.96c2.24-0.61,3.56-2.91,2.96-5.15c-2.99-11.02-11.76-17.08-24.72-17.08c-8.16,0-15.7,2.9-20.67,7.95   c-4.19,4.26-5.94,8.97-5.84,15.74c0.02,16.25,16.5,21.19,21.91,22.82l0.64,0.19c0.85,0.26,1.82,0.51,2.95,0.79   c10.36,2.63,20.47,6.26,20.47,18.81c0,10.61-7.97,17.75-19.82,17.75c-10.35,0-17.93-5.73-19.78-14.94   c-0.46-2.28-2.68-3.75-4.95-3.29c-2.28,0.46-3.75,2.67-3.29,4.95c2.64,13.18,13.64,21.69,28.02,21.69c7.9,0,15.05-2.56,20.15-7.2   c5.21-4.75,8.08-11.48,8.08-18.95C675.72,287.23,656.94,282.45,648.92,280.41z"/>
</g>
</svg>