<?xml version="1.0" encoding="UTF-8" standalone="no"?>
<svg width="20px" height="20px" viewBox="0 0 20 20" version="1.1" xmlns="http://www.w3.org/2000/svg" xmlns:xlink="http://www.w3.org/1999/xlink">
    <!-- Generator: Sketch 41.2 (35397) - http://www.bohemiancoding.com/sketch -->
    <title>icons/calendar</title>
    <desc>Created with Sketch.</desc>
    <defs></defs>
    <g id="Symbols" stroke="none" stroke-width="1" fill="none" fill-rule="evenodd">
        <g id="icons/calendar" fill="#FFFFFF">
            <path d="M18.342,1.667 L15.834,1.667 L15.834,0.834 C15.834,0.374 15.461,0 15,0 C14.539,0 14.167,0.374 14.167,0.834 L14.167,1.667 L6.834,1.667 L6.834,0.834 C6.834,0.374 6.46,0 6,0 C5.54,0 5.167,0.374 5.167,0.834 L5.167,1.667 L2.658,1.667 C1.744,1.667 1,2.411 1,3.324 L1,18.343 C1,19.256 1.744,20 2.658,20 L18.343,20 C19.256,20 20,19.256 20,18.342 L20,3.324 C20,2.411 19.256,1.667 18.342,1.667 Z M2.667,18.343 L2.661,8.334 L18.334,8.334 L18.334,18.334 L2.667,18.343 Z M13.8605,10.3003376 L10.2775,14.5993376 L8.4235,12.7443376 C8.0975,12.4183376 7.5705,12.4183376 7.2445,12.7443376 C6.9185,13.0703376 6.9185,13.5963376 7.2445,13.9223376 L9.7445,16.4223376 C9.9015,16.5803376 10.1125,16.6663376 10.3335,16.6663376 L10.3725,16.6663376 C10.6065,16.6563376 10.8245,16.5473376 10.9745,16.3673376 L15.1415,11.3673376 C15.4355,11.0133376 15.3875,10.4883376 15.0345,10.1933376 C14.6795,9.89833765 14.1555,9.94633765 13.8605,10.3003376 Z M5.167,3.332 L5.167,4.167 C5.167,4.627 5.54,5 6,5 C6.46,5 6.834,4.627 6.834,4.167 L6.834,3.331 L14.167,3.327 L14.167,4.167 C14.167,4.627 14.539,5 15,5 C15.461,5 15.834,4.627 15.834,4.167 L15.834,3.326 L18.334,3.324 L18.334,6.667 L2.66,6.667 L2.658,3.334 L5.167,3.332 Z" id="Combined-Shape"></path>
        </g>
    </g>
</svg>