<svg width="20px" height="20px" viewBox="0 0 20 20" version="1.1" xmlns="http://www.w3.org/2000/svg" xmlns:xlink="http://www.w3.org/1999/xlink"><title>icons/comingsoon</title><desc>Created with Sketch.</desc><defs></defs><g id="Symbols" stroke="none" stroke-width="1" fill="none" fill-rule="evenodd"><g id="icons/comingsoon" fill="#ffffff"><path d="M10,1.395 C5.255,1.395 1.395,5.255 1.395,10 C1.395,14.744 5.255,18.604 10,18.604 C14.745,18.604 18.605,14.744 18.605,10 C18.605,5.255 14.745,1.395 10,1.395 M10,20 C4.486,20 0,15.514 0,10 C0,4.485 4.486,8.10018719e-13 10,8.10018719e-13 C15.514,8.10018719e-13 20,4.485 20,10 C20,15.514 15.514,20 10,20 Z M15.1163,11.6543 L8.3723,11.6543 L8.3723,5.7893 L9.7673,5.7893 L9.7673,10.2593 L15.1163,10.2593 L15.1163,11.6543 Z" id="Combined-Shape"></path></g></g></svg>