<?xml version="1.0" encoding="UTF-8"?>
<svg width="32" height="32" fill="none" version="1.1" viewBox="0 0 .96 .96" xmlns="http://www.w3.org/2000/svg" stroke="currentColor">
<path d="m0.48 0.9261c0.24637 0 0.4461-0.19973 0.4461-0.4461 0-0.24638-0.19973-0.4461-0.4461-0.4461-0.24638 0-0.4461 0.19973-0.4461 0.4461 0 0.24637 0.19973 0.4461 0.4461 0.4461z" display="none" stroke="currentColor" stroke-linecap="round" stroke-linejoin="round" stroke-width=".033458"/>
<g transform="matrix(1.5201 0 0 1.5201 -.22429 -.26058)" stroke-linecap="round" stroke-linejoin="round" stroke-width=".033586">
<path d="m0.59022 0.77828v-0.083429c0.001094-0.013858-7.9012e-4 -0.027794-0.005652-0.040874-0.004863-0.01308-0.012484-0.025011-0.022415-0.03499 0.093742-0.010174 0.19226-0.04477 0.19226-0.20348-8.51e-6 -0.040588-0.01604-0.079617-0.044782-0.10901 0.013608-0.035507 0.012648-0.074756-0.002674-0.10959 0 0-0.035228-0.010174-0.11673 0.043025-0.068427-0.018058-0.14055-0.018058-0.20898 0-0.081503-0.053194-0.11673-0.043025-0.11673-0.043025-0.015334 0.034838-0.016295 0.074083-0.002674 0.10959-0.028955 0.029612-0.045007 0.068995-0.044782 0.10988 0 0.15756 0.09852 0.19215 0.19226 0.20348-0.009823 0.009883-0.017395 0.021668-0.022233 0.034595-0.004863 0.012922-0.006819 0.026688-0.005834 0.040406v0.083429"/>
<path d="m0.38124 0.72015c-0.089564 0.028286-0.1642 0-0.20898-0.087208"/>
</g>
</svg>
