<?xml version="1.0" encoding="UTF-8" standalone="no"?>
<svg width="32px" height="32px" viewBox="0 0 32 32" version="1.1" xmlns="http://www.w3.org/2000/svg" xmlns:xlink="http://www.w3.org/1999/xlink">
    <!-- Generator: sketchtool 41.2 (35397) - http://www.bohemiancoding.com/sketch -->
    <title>314663B8-5142-4BC2-9A1A-DD3B854995B7</title>
    <desc>Created with sketchtool.</desc>
    <defs></defs>
    <g id="Symbols" stroke="none" stroke-width="1" fill="none" fill-rule="evenodd">
        <g id="icons/social/instagram" fill="#FFFFFF">
            <path d="M22.538,10.662 C22.538,11.3246667 22.0006667,11.862 21.338,11.862 C20.6753333,11.862 20.138,11.3246667 20.138,10.662 C20.138,9.99933333 20.6753333,9.462 21.338,9.462 C22.0006667,9.462 22.538,9.99933333 22.538,10.662 M16,19.3333333 C14.1593333,19.3333333 12.6666667,17.8406667 12.6666667,16 C12.6666667,14.1593333 14.1593333,12.6666667 16,12.6666667 C17.8406667,12.6666667 19.3333333,14.1593333 19.3333333,16 C19.3333333,17.8406667 17.8406667,19.3333333 16,19.3333333 M16,10.8646667 C13.164,10.8646667 10.8646667,13.164 10.8646667,16 C10.8646667,18.836 13.164,21.1353333 16,21.1353333 C18.836,21.1353333 21.1353333,18.836 21.1353333,16 C21.1353333,13.164 18.836,10.8646667 16,10.8646667 M16,7.802 C18.67,7.802 18.9866667,7.812 20.0406667,7.86 C21.016,7.90466667 21.5453333,8.06733333 21.898,8.20466667 C22.3646667,8.386 22.6973333,8.60266667 23.0473333,8.95266667 C23.3973333,9.30266667 23.614,9.63533333 23.7953333,10.102 C23.9326667,10.4546667 24.0953333,10.984 24.14,11.9593333 C24.188,13.0133333 24.198,13.33 24.198,16 C24.198,18.67 24.188,18.9866667 24.14,20.0406667 C24.0953333,21.016 23.9326667,21.5453333 23.7953333,21.898 C23.614,22.3646667 23.3973333,22.6973333 23.0473333,23.0473333 C22.6973333,23.3973333 22.3646667,23.614 21.898,23.7953333 C21.5453333,23.9326667 21.016,24.0953333 20.0406667,24.14 C18.9866667,24.188 18.67,24.198 16,24.198 C13.3293333,24.198 13.0133333,24.188 11.9593333,24.14 C10.984,24.0953333 10.4546667,23.9326667 10.102,23.7953333 C9.63533333,23.614 9.30266667,23.3973333 8.95266667,23.0473333 C8.60266667,22.6973333 8.386,22.3646667 8.20466667,21.898 C8.06733333,21.5453333 7.90466667,21.016 7.86,20.0406667 C7.812,18.9866667 7.802,18.67 7.802,16 C7.802,13.33 7.812,13.0133333 7.86,11.9593333 C7.90466667,10.984 8.06733333,10.4546667 8.20466667,10.102 C8.386,9.63533333 8.60266667,9.30266667 8.95266667,8.95266667 C9.30266667,8.60266667 9.63533333,8.386 10.102,8.20466667 C10.4546667,8.06733333 10.984,7.90466667 11.9593333,7.86 C13.0133333,7.812 13.33,7.802 16,7.802 M16,6 C13.284,6 12.9433333,6.01133333 11.8766667,6.06 C10.8126667,6.10866667 10.0853333,6.278 9.44933333,6.52533333 C8.792,6.78066667 8.234,7.12266667 7.67866667,7.67866667 C7.12266667,8.23466667 6.78066667,8.792 6.52466667,9.44933333 C6.278,10.086 6.10866667,10.8126667 6.06,11.8773333 C6.01133333,12.9433333 6,13.284 6,16 C6,18.716 6.01133333,19.0566667 6.06,20.1226667 C6.10866667,21.1873333 6.278,21.914 6.52466667,22.5506667 C6.78066667,23.208 7.12266667,23.7653333 7.67866667,24.3213333 C8.234,24.8773333 8.792,25.2193333 9.44933333,25.4753333 C10.0853333,25.722 10.8126667,25.8913333 11.8766667,25.94 C12.9433333,25.9886667 13.284,26 16,26 C18.716,26 19.0566667,25.9886667 20.1226667,25.94 C21.1873333,25.8913333 21.914,25.722 22.5506667,25.4753333 C23.208,25.2193333 23.7653333,24.8773333 24.3213333,24.3213333 C24.8773333,23.7653333 25.2193333,23.208 25.4746667,22.5506667 C25.722,21.914 25.8913333,21.1873333 25.94,20.1226667 C25.9886667,19.0566667 26,18.716 26,16 C26,13.284 25.9886667,12.9433333 25.94,11.8773333 C25.8913333,10.8126667 25.722,10.086 25.4746667,9.44933333 C25.2193333,8.792 24.8773333,8.23466667 24.3213333,7.67866667 C23.7653333,7.12266667 23.208,6.78066667 22.5506667,6.52533333 C21.914,6.278 21.1873333,6.10866667 20.1226667,6.06 C19.0566667,6.01133333 18.716,6 16,6" id="Fill-1"></path>
        </g>
    </g>
</svg>