<?xml version="1.0" encoding="UTF-8" standalone="no"?>
<svg width="32px" height="32px" viewBox="0 0 32 32" version="1.1" xmlns="http://www.w3.org/2000/svg" xmlns:xlink="http://www.w3.org/1999/xlink">
    <!-- Generator: Sketch 41.2 (35397) - http://www.bohemiancoding.com/sketch -->
    <title>icons/social/twitch</title>
    <desc>Created with Sketch.</desc>
    <defs></defs>
    <g id="Symbols" stroke="none" stroke-width="1" fill="none" fill-rule="evenodd">
        <g id="icons/social/twitch" fill="#FFFFFF">
            <path d="M19.9275766,23.3909006 L16,23.3909006 L13.4280409,26 L10.7818013,26 L10.7818013,23.3909006 L6,23.3909006 L6,9.46332405 L7.29990715,6 L25.1272052,6 L25.1272052,18.1727019 L19.9275766,23.3909006 Z M23.4094708,17.2999071 L23.4094708,7.73630455 L9.04549675,7.73630455 L9.04549675,20.3454039 L12.9545032,20.3454039 L12.9545032,22.9545032 L15.5636026,20.3454039 L20.3454039,20.3454039 L23.4094708,17.2999071 Z M18.6090994,11.2181987 L18.6090994,16.4363974 L20.3454039,16.4363974 L20.3454039,11.2181987 L18.6090994,11.2181987 Z M13.8272981,16.4363974 L15.5636026,16.4363974 L15.5636026,11.2181987 L13.8272981,11.2181987 L13.8272981,16.4363974 Z" id="ico---social---Twitch"></path>
        </g>
    </g>
</svg>