<?xml version="1.0" encoding="UTF-8"?>
<!-- Generator: Adobe Illustrator 20.0.0, SVG Export Plug-In . SVG Version: 6.00 Build 0)  -->
<svg version="1.1" id="layer" xmlns="http://www.w3.org/2000/svg" xmlns:xlink="http://www.w3.org/1999/xlink" x="0px" y="0px" viewBox="0 0 1043 189" style="enable-background:new 0 0 1043 189;" xml:space="preserve">
<style type="text/css">
	.st0{fill:#008AC9;}
	.st1{fill:#E3001B;}
</style>
<g>
	<path id="path2491" class="st0" d="M197.4,85.3c-0.1-3.5-1.8-5.3-5-5.4h-17.2c-4.1,0.2-6.2,2.5-6.3,6.7v30.9   c0.1,4.3,2.4,6.5,6.9,6.7h15.7c1.6,0,3-0.6,4.1-1.8c1.1-0.9,1.7-2.1,1.7-3.6V85.3z M146.9,81c0.1-7.7,1.8-13.6,5.2-17.6   c1.7-1.7,3.9-3.1,6.6-4.3c2.8-1.2,5.4-1.8,8-1.8h31.5c13.9,0.1,21,7.7,21.2,22.8v46.5c-0.1,5.4-2.2,10-6.3,13.9   c-4,4.1-8.8,6.2-14.4,6.3H169v33.5h-22.1V81"/>
	<path id="path2493" class="st0" d="M259.3,119.7c0,1.3,0.6,2.3,1.8,3.1c1,0.9,2.4,1.4,4,1.4H282c3.8,0,5.8-1.5,5.9-4.5v-6.3   c0-3.5-2-5.2-6.1-5.2h-16.8c-2.2,0-3.7,0.4-4.6,1.1c-0.8,0.8-1.2,2.4-1.2,4.8V119.7z M287.9,84.8c0.1-3.4-1.9-5-5.9-4.9h-44.4V57.2   h50c14.6,0.2,22,7.3,22.2,21.2v47.4c-0.1,6-2,10.9-5.5,14.9c-3.7,4.1-8.5,6.1-14.4,6.1h-30.2c-14.7-0.1-22.2-6.8-22.4-20.2v-18.3   c0.1-14,7.2-21.1,21.4-21.3h29.3V84.8"/>
	<path id="path2495" class="st0" d="M371.8,157.7c1.7-0.1,3.3-0.7,4.5-1.9c1.2-1.1,1.8-2.3,1.8-3.6v-5.4h-28.2   c-3.7,0-6.6-0.5-8.8-1.4c-2.3-0.9-4.6-2.4-7-4.7c-2.2-2.4-3.8-4.9-4.8-7.5c-1-2.4-1.5-5.4-1.5-9.1V57.2h22.1V117   c0,4.8,2,7.2,5.9,7.2h15.6c1.9,0,3.5-0.6,4.8-1.8c1.3-1.1,1.9-2.3,1.9-3.8V57.2h21.9v98.7c-0.1,7.3-2,13.2-5.6,17.6   c-3.7,4.4-8.7,6.7-15.1,6.8h-51.5v-22.7H371.8"/>
	<path id="path2497" class="st0" d="M417.3,124.1h39.3c3.6-0.1,5.5-1.6,5.6-4.3v-2c0-0.6-0.2-1.2-0.5-1.9c-0.9-1.7-2-2.6-3.2-2.6   h-19.5c-5.8-0.1-10.7-2.1-14.9-6c-4.2-3.6-6.3-7.9-6.5-13.1V77.4c0.2-13.2,7.4-19.9,21.5-20.1h45.6v22.7H446   c-4.5,0-6.8,1.4-6.8,4.2v2.2c0,2.9,2.3,4.3,7,4.3h19.4c5.2,0.1,9.6,2.1,13.3,6c3.7,3.9,5.6,8.5,5.8,13.9V127   c-0.1,4.6-2.3,9.3-6.4,13.9c-2,2.3-4.1,3.8-6.1,4.7c-2.1,0.8-5,1.2-8.7,1.2h-46.1V124.1"/>
	<path id="path2499" class="st0" d="M522.4,119.7c0,1.3,0.6,2.3,1.8,3.1c1,0.9,2.3,1.4,4,1.4h17c3.8,0,5.8-1.5,5.9-4.5v-6.3   c0-3.5-2-5.2-6.1-5.2h-16.8c-2.2,0-3.7,0.4-4.6,1.1c-0.8,0.8-1.2,2.4-1.2,4.8V119.7z M551.1,84.8c0.1-3.4-1.9-5-6-4.9h-44.4V57.2   h50c14.6,0.2,22,7.3,22.2,21.2v47.4c-0.1,6-2,10.9-5.5,14.9c-3.7,4.1-8.5,6.1-14.4,6.1h-30.3c-14.7-0.1-22.2-6.8-22.4-20.2v-18.3   c0.1-14,7.2-21.1,21.4-21.3h29.4V84.8"/>
	<path id="path2501" class="st0" d="M590.9,44.4c0.1-6.1,2.4-11,6.8-14.7c4.3-3.7,9.9-5.7,16.9-5.8h14v21.9h-8.5   c-4.7,0.1-7,2.3-7.1,6.7v4.8h15.6v22.7h-15.6v66.9h-22.1V44.4"/>
	<path id="path2503" class="st0" d="M691.3,84.4v-0.5c0-1.2-0.5-2.2-1.4-2.9c-1-0.7-2.3-1.1-3.8-1.1h-15.4c-2,0-3.6,0.6-4.8,1.7   c-1.5,1-2.3,2.4-2.3,4.1v9.1L691.3,84.4z M664,116.4v1.4c0,1.8,0.5,3.3,1.4,4.3c0.7,1.3,1.6,2,2.9,2h45.3v22.7h-48.2   c-4.4,0-7.8-0.4-10.2-1.2c-2.6-0.9-5-2.3-7.1-4.3c-2.4-2.4-4.1-4.8-4.9-7.4c-0.9-2.6-1.4-6.1-1.4-10.4l-0.2-45.4   c0.2-13.7,7.4-20.7,21.5-20.9h29.7c13.7,0.2,20.7,7.5,20.9,21.7v17.9L664,116.4"/>
	<path id="path2505" class="st0" d="M760.5,146.8c-3.3,0-6.4-0.3-9.2-0.9c-2.9-0.5-5.8-1.8-8.7-4.1c-3-2.6-5.1-5.6-6.3-8.9   c-1.2-3.2-1.8-6.9-1.8-10.9V79.8c-0.1-3.4,0.2-6.5,1-9.1c0.7-2.6,2.3-5.2,4.7-7.7c2.7-2.6,5.4-4.4,8.3-5.3c2.8-0.7,5.9-1.1,9.4-1.1   h33.8v5.3h-33c-5.8,0-10.4,1.2-13.8,3.6c-3.4,2.6-5.2,7.1-5.2,13.5v42.3c0,3,0.5,5.9,1.4,8.7c0.9,2.7,2.5,5.2,4.7,7.3   c2.4,1.8,4.8,3,7.1,3.4c2.4,0.5,5,0.8,7.8,0.8h31.5v5.3H760.5"/>
	<path id="path2507" class="st0" d="M878.7,91.9h-44.3c-5.3,0.1-9.5,1.8-12.5,4.9c-3.1,3.2-4.6,7.6-4.6,13.2v13.5   c0,2.6,0.3,5,0.8,7.2c0.6,2.3,1.9,4.3,4.1,6c3.8,3.2,8.1,4.7,12.7,4.7h26.9c11.2-0.1,16.9-6,16.9-17.8V91.9z M884,122.4   c0,3.4-0.3,6.4-0.7,9c-0.7,2.9-2.2,5.6-4.4,8.2c-4.6,4.9-10.4,7.3-17.2,7.1h-26.4c-6.9,0-12.4-2-16.7-6.1c-4.4-4-6.6-9.6-6.6-16.8   v-13.6c0.2-15.4,7.9-23.3,23-23.6h43.9v-6c0-4.9-1.4-9.2-4.3-12.9c-1.8-2.4-3.9-4-6.3-4.8c-2.4-0.6-5.2-1-8.2-1h-47.9v-5.3h45.4   c4.2,0,7.9,0.3,11.3,0.9c1.7,0.3,3.3,1,4.8,2c1.6,0.9,3,2.3,4.3,4.1c4.1,5.3,6.1,11.3,6,18.1V122.4"/>
	<path id="path2509" class="st0" d="M933.6,61.9c-12.3,0.2-18.4,6.9-18.1,20.1v64.7h-5.3V82.1c-0.2-17,7.8-25.5,24.3-25.5h5.9v5.3   H933.6"/>
	<path id="path2511" class="st0" d="M1022.9,62h-41.8c-3,0-5.7,0.3-8.1,1c-2.5,0.6-5,2.1-7.3,4.6c-2.2,2.3-3.6,4.6-4.2,6.8   c-0.8,2.3-1.1,5-1,8.2v41.3c0,6.9,2,11.5,6,14c2,1.2,4.2,2,6.6,2.6c2.4,0.6,5.2,1,8.2,1h18.3c6.8,0,12.4-1.6,16.7-4.7   c4.3-3,6.5-8.1,6.7-15.4V62z M1028.1,121.7c-0.5,17.1-9.5,25.5-27.1,25.1h-19.6c-4.1,0-7.8-0.4-11.1-1.1c-3.4-0.9-6.6-2.9-9.7-6.1   c-2.3-2.9-3.8-5.8-4.4-8.8c-0.8-3-1.2-6.3-1-9.9V82.5c0.2-17.3,9-26,26.2-25.8h41.5V27.4h5.3V121.7"/>
	<path id="path2513" class="st1" d="M24.3,53.8c1.7-0.8,3.5-1.4,5.2-1.7c3.2-15.2,16.7-26.6,32.8-26.6c16.2,0,29.6,11.4,32.8,26.6   c5,0.9,9.1,2.9,12.2,5.9c0.1-2.9,0-5.7-0.3-8.4c-2-23-21.3-41-44.8-41c-24.2,0-43.9,19.2-44.9,43.1c-0.1,2.1-0.2,4.2-0.1,6.5   C19.3,56.5,21.6,55,24.3,53.8"/>
	<path id="path2515" class="st1" d="M88.6,57.2H34.7c-2.6,0-5.3,0.6-8,1.8c-2.7,1.2-4.9,2.6-6.6,4.3c-3.3,4-5.1,9.9-5.2,17.6v42.1   c0.1,7.7,1.8,13.6,5.2,17.6c1.8,1.7,3.9,3.1,6.6,4.3c2.8,1.2,5.5,1.8,8,1.8h53.9c13.9-0.1,21-7.8,21.2-22.9V80.1   C109.6,65,102.5,57.3,88.6,57.2"/>
</g>
</svg>